<svg width="13" height="14" viewBox="0 0 13 14" fill="none" xmlns="http://www.w3.org/2000/svg">
<path d="M12.0418 2.45367C12.0433 2.36102 11.9862 2.27777 11.8995 2.24551L6.01382 0.0656743C5.96674 0.0484569 5.91462 0.0477928 5.86691 0.0641416L0.199228 2.026C0.11268 2.05609 0.0540537 2.13674 0.052521 2.22829C0.0509883 2.31984 0.106805 2.40269 0.192254 2.43559L5.85993 4.61542C5.88499 4.625 5.91158 4.6298 5.93818 4.6298C5.9615 4.6298 5.98462 4.6261 6.00707 4.61869L11.8927 2.65683C11.9804 2.62761 12.0401 2.5461 12.0418 2.45367ZM5.93968 2.7218C5.65151 2.7218 5.41805 2.53695 5.41805 2.30914C5.41805 2.08113 5.65151 1.89649 5.93968 1.89649C6.22786 1.89649 6.46132 2.08113 6.46132 2.30914C6.46135 2.53695 6.22786 2.7218 5.93968 2.7218Z" fill="#9AECFF" stroke="#9AECFF" stroke-width="0.104662"/>
<path d="M11.9619 3.14537C11.9052 3.10417 11.8319 3.09283 11.7655 3.11528L6.15576 4.98165V13.0693L11.91 10.9381C11.9956 10.9063 12.0523 10.8247 12.0523 10.7336V3.32217C12.0523 3.25218 12.0188 3.18635 11.9619 3.14537ZM7.45127 11.1696C7.22325 11.1696 7.03861 10.9359 7.03861 10.648C7.03861 10.3598 7.22325 10.1263 7.45127 10.1263C7.67929 10.1263 7.86393 10.3598 7.86393 10.648C7.86393 10.9359 7.67929 11.1696 7.45127 11.1696ZM9.02384 8.28914C8.79583 8.28914 8.61118 8.05569 8.61118 7.76752C8.61118 7.47934 8.79583 7.24589 9.02384 7.24589C9.25163 7.24589 9.4365 7.47934 9.4365 7.76752C9.4365 8.05569 9.25163 8.28914 9.02384 8.28914ZM10.7211 5.67333C10.4931 5.67333 10.3084 5.43988 10.3084 5.1517C10.3084 4.86353 10.4931 4.63007 10.7211 4.63007C10.9491 4.63007 11.1337 4.86353 11.1337 5.1517C11.1337 5.43988 10.9491 5.67333 10.7211 5.67333Z" fill="#9AECFF" stroke="#9AECFF" stroke-width="0.104662"/>
<path d="M0.146841 2.9244C0.0875498 2.96494 0.0522461 3.03231 0.0522461 3.10401V10.5155C0.0522461 10.6031 0.104563 10.6822 0.18521 10.7162L5.7199 13.0578V4.96647L0.348266 2.90065C0.281542 2.87492 0.206132 2.88363 0.146841 2.9244ZM4.50179 5.73117C4.72958 5.73117 4.91445 5.96485 4.91445 6.25279C4.91445 6.54097 4.72961 6.77465 4.50179 6.77465C4.27378 6.77465 4.08913 6.54097 4.08913 6.25279C4.08913 5.96485 4.27378 5.73117 4.50179 5.73117ZM4.4353 10.2975C4.66309 10.2975 4.84796 10.5312 4.84796 10.8191C4.84796 11.1073 4.66311 11.3408 4.4353 11.3408C4.20728 11.3408 4.02243 11.1073 4.02243 10.8191C4.02243 10.5312 4.20728 10.2975 4.4353 10.2975ZM1.36451 4.42479C1.59253 4.42479 1.77717 4.65825 1.77717 4.94642C1.77717 5.23439 1.59253 5.46805 1.36451 5.46805C1.13672 5.46805 0.951853 5.23437 0.951853 4.94642C0.951853 4.65825 1.13672 4.42479 1.36451 4.42479ZM1.3499 9.03626C1.57792 9.03626 1.76256 9.26971 1.76256 9.55789C1.76256 9.84606 1.57792 10.0795 1.3499 10.0795C1.12211 10.0795 0.937241 9.84606 0.937241 9.55789C0.937241 9.26971 1.12211 9.03626 1.3499 9.03626Z" fill="#9AECFF" stroke="#9AECFF" stroke-width="0.104662"/>
</svg>
